<svg id="Layer_1" data-name="Layer 1" xmlns="http://www.w3.org/2000/svg" viewBox="0 0 330 303.48"><defs><style>.cls-1,.cls-2{fill:#fff;}.cls-2{fill-rule:evenodd;}</style></defs><path class="cls-1" d="M198.19,80c0,.14-.07.29-.11.42l.3-.49Z"/><path class="cls-1" d="M198.38,80l-.3.49c0-.13.08-.28.11-.42Z"/><path class="cls-1" d="M231.74,123.5c-14.48-85.53-81-111.25-81-111.25-18.66-10-33.77,0-33.77,0L87,39.9C83.48,52.11,95.7,53.4,95.7,53.4c37.31-7.06,49.2,15.43,49.2,15.43,18.34,28.3,15.76,68.83,15.76,68.83-1.57,30.66-12.55,55.77-16.56,64,21.17-6.43,40.48-18.95,59-25.74.86-.31,1.71-.61,2.57-.9a78.12,78.12,0,0,0,17.74-40.27,46.85,46.85,0,0,1,1.08,10c0,10.13-3.17,19.52-7.08,27.25a51.61,51.61,0,0,1,8.28-.7,41.62,41.62,0,0,1,10.25,1.25A198.09,198.09,0,0,0,231.74,123.5ZM123.68,33.79a3.54,3.54,0,1,1,3.54-3.53A3.54,3.54,0,0,1,123.68,33.79Z"/><path class="cls-1" d="M134,195.85a80.91,80.91,0,0,1-8.29,9.54,71.57,71.57,0,0,1-27.15-2.64,77.32,77.32,0,0,1-8.27-3c31.31-33.54,50.47-128.67,50.47-128.67,11.92,19.62,12.86,44.39,12.86,44.39C157.43,166.27,134,195.85,134,195.85Z"/><path class="cls-2" d="M262.79,190.65c-1.45-1-2.89-2-4.33-2.8a0,0,0,0,0,0,0,55.13,55.13,0,0,0-7.57-3.72,49.83,49.83,0,0,0-14.45-3.32c-1.45-.12-2.89-.18-4.34-.18a75.34,75.34,0,0,0-22.4,3.81l-.37.11c-32.6,10.31-65.67,37-98.75,31.37a56.91,56.91,0,0,1-25.3-11.43c-1.43-1.1-2.88-2.29-4.31-3.56A90.62,90.62,0,0,1,74,194.07q-3.4-3.73-6.81-8.19A118.22,118.22,0,0,0,77.27,193a90,90,0,0,0,13,6.79,77.32,77.32,0,0,0,8.27,3,71.57,71.57,0,0,0,27.15,2.64,91.64,91.64,0,0,0,18.44-3.72c21.17-6.43,40.48-18.95,59-25.74.86-.31,1.71-.61,2.57-.9a73.72,73.72,0,0,1,11.74-3,51.61,51.61,0,0,1,8.28-.7,41.62,41.62,0,0,1,10.25,1.25,38.65,38.65,0,0,1,5.31,1.73c6.58,2.65,13.13,7.21,19.72,14.3C261.55,189.25,262.17,189.93,262.79,190.65Z"/><path class="cls-1" d="M125.65,262.66a31.48,31.48,0,0,0-2.71-13.28,24.8,24.8,0,0,0-6.5-8.6c-5.31-4.51-12.64-7-21.28-7-18,0-30.48,10.72-30.48,28.84q0,.69,0,1.38a32,32,0,0,0,1.84,9.85c4.12,11.25,14.7,17.68,28.61,17.68a33.91,33.91,0,0,0,14.73-3l6.94,7.09,10.39-10.24L121,279A30.23,30.23,0,0,0,125.65,262.66ZM95.16,278.25c-7.2,0-12.67-4-14.43-10.68a19.14,19.14,0,0,1-.61-4.91,17.83,17.83,0,0,1,.92-5.73,14.35,14.35,0,0,1,14.12-9.87,16.74,16.74,0,0,1,4.81.67,13.42,13.42,0,0,1,8.33,7,17.78,17.78,0,0,1,1.75,7.94C110.05,272.42,104.3,278.25,95.16,278.25Z"/><path class="cls-1" d="M304.79,254.15q0-.93-.09-1.86a18.34,18.34,0,0,0-3.58-9.37c-3.5-4.61-9.45-7.76-17.76-7.76H256.42v55.15H272V272.42h5.43l12.84,17.89h17.18v-.95l-14.34-18.59C302.43,266.67,304.79,260.92,304.79,254.15ZM272,256.63v-9h11.34a5.61,5.61,0,0,1,4,1.53,7.35,7.35,0,0,1,2.05,5.32c0,3.31-1.81,6.38-5.91,6.38H272Z"/><path class="cls-1" d="M54.89,267.37l-14.4-32.21H24.74L10,268l-3.52,7.84L0,290.31H16.54l3.63-9.06H44.82l3.63,9.06h16.7l-6.07-13.57Zm-29.45.8,7.09-17.57,7,17.57Z"/><path class="cls-1" d="M169.53,250.72V266c0,8.35-4.18,12.14-10.48,12.14s-10.48-3.63-10.48-12.29V235.24H133.05v30.65c0,16.85,9.85,25.6,26,25.6,15.52,0,25.29-8.45,26-23.58,0-.61,0-1.23,0-1.87v-30.8H169.53Z"/><path class="cls-1" d="M242.14,268.23l-14.79-33.07H211.6L197.3,267,194,274.32l-7.17,16H203.4l3.63-9.06h24.65l0,.07,3.6,9H252l-5.61-12.55Zm-29.83-.06,7.09-17.57,7,17.57Z"/><polygon class="cls-1" points="314.48 235.16 314.48 238.47 314.48 249.03 314.48 290.31 330 290.31 330 246.18 330 236.76 330 235.16 314.48 235.16"/></svg>