<svg width="18" height="22" viewBox="0 0 18 22" fill="none" xmlns="http://www.w3.org/2000/svg">
<path fill-rule="evenodd" clip-rule="evenodd" d="M14.7198 20.7049L17.3456 8.33067C17.5779 7.2468 16.9521 6.81454 16.236 7.07261L0.810146 13.021C-0.247918 13.4339 -0.228564 14.021 0.629501 14.292L4.57789 15.5242L13.7392 9.75648C14.165 9.47261 14.5585 9.6339 14.236 9.91777L6.82305 16.6145L6.53918 20.6855C6.95208 20.6855 7.13273 20.5049 7.34563 20.292L9.27466 18.4339L13.2747 21.3823C14.0037 21.7952 14.5263 21.5823 14.7198 20.7049Z" fill="#0A174A"/>
<path d="M8 3.90625H18V6.09375H8V3.90625Z" fill="#E6E7E8"/>
<path d="M16.4375 1.5625H9.5625C8.52703 1.5625 8 2.33203 8 3.28125V3.90625H18V3.28125C18 2.33203 17.473 1.5625 16.4375 1.5625Z" fill="#EC1C24"/>
<path d="M8 6.71875C8 7.66797 8.52703 8.4375 9.5625 8.4375H16.4375C17.473 8.4375 18 7.66797 18 6.71875V6.09375H8V6.71875Z" fill="#1B75BB"/>
</svg>
