<svg width="19" height="13" viewBox="0 0 19 13" fill="none" xmlns="http://www.w3.org/2000/svg">
<path d="M17.6282 1.88426C17.5262 1.52063 17.3277 1.19141 17.0536 0.931612C16.7717 0.663824 16.4263 0.472268 16.0499 0.375027C14.6412 0.00371965 8.99734 0.00371974 8.99734 0.00371974C6.64448 -0.0230499 4.29219 0.0946896 1.95376 0.356274C1.57735 0.4607 1.23257 0.656535 0.950109 0.926361C0.672566 1.1934 0.471535 1.5227 0.366519 1.88351C0.11425 3.24252 -0.00831937 4.62244 0.000462958 6.00464C-0.00853842 7.3856 0.11373 8.76506 0.366519 10.1258C0.469285 10.4851 0.669566 10.8129 0.947858 11.0777C1.22615 11.3425 1.5727 11.5337 1.95376 11.635C3.38123 12.0056 8.99734 12.0056 8.99734 12.0056C11.3532 12.0324 13.7085 11.9146 16.0499 11.653C16.4263 11.5558 16.7717 11.3642 17.0536 11.0964C17.3311 10.8316 17.5284 10.5023 17.6274 10.1438C17.8863 8.78528 18.0121 7.4048 18.0032 6.02189C18.0227 4.63313 17.897 3.24614 17.6282 1.88351V1.88426ZM7.20307 8.57303V3.437L11.8988 6.00539L7.20307 8.57303Z" fill="#0A174A"/>
</svg>
