<svg width="637" height="637" viewBox="0 0 637 637" fill="none" xmlns="http://www.w3.org/2000/svg">
<path d="M102.832 213.203C126.637 164.445 166.262 125.192 215.243 101.848C264.224 78.5037 319.669 72.4456 372.535 84.662C425.402 96.8784 472.568 126.648 506.341 169.115C540.114 211.583 558.5 264.241 558.5 318.5" stroke="white"/>
<path d="M551.692 376.161C543.082 410.983 526.782 443.436 503.989 471.135C481.196 498.834 452.489 521.076 419.976 536.229C387.462 551.383 351.968 559.062 316.098 558.703C280.229 558.345 244.895 549.957 212.691 534.157" stroke="white"/>
<path d="M148.128 487.842C121.388 460.94 101.399 428.088 89.7975 391.976C78.1956 355.863 75.3102 317.517 81.3777 280.075" stroke="white"/>
</svg>
