<svg width="18" height="18" viewBox="0 0 18 18" fill="none" xmlns="http://www.w3.org/2000/svg">
<path fill-rule="evenodd" clip-rule="evenodd" d="M9.00069 0.466797C6.68315 0.466797 6.3923 0.47693 5.48207 0.518353C4.57362 0.559953 3.95352 0.703777 3.41094 0.914802C2.84969 1.13276 2.37359 1.42432 1.89928 1.89881C1.42461 2.37313 1.13305 2.84922 0.91438 3.41029C0.702822 3.95305 0.55882 4.57333 0.517931 5.48143C0.47722 6.39166 0.466553 6.68268 0.466553 9.00022C0.466553 11.3178 0.476864 11.6077 0.518109 12.5179C0.559887 13.4264 0.703711 14.0465 0.914557 14.5891C1.13269 15.1503 1.42425 15.6264 1.89875 16.1007C2.37288 16.5754 2.84898 16.8677 3.40987 17.0856C3.95281 17.2967 4.57308 17.4405 5.48136 17.4821C6.39159 17.5235 6.68226 17.5336 8.99962 17.5336C11.3173 17.5336 11.6073 17.5235 12.5175 17.4821C13.426 17.4405 14.0468 17.2967 14.5897 17.0856C15.1508 16.8677 15.6262 16.5754 16.1003 16.1007C16.575 15.6264 16.8665 15.1503 17.0852 14.5893C17.295 14.0465 17.439 13.4262 17.4817 12.5181C17.5226 11.6079 17.5332 11.3178 17.5332 9.00022C17.5332 6.68268 17.5226 6.39184 17.4817 5.4816C17.439 4.57315 17.295 3.95306 17.0852 3.41047C16.8665 2.84922 16.575 2.37313 16.1003 1.89881C15.6256 1.42414 15.151 1.13258 14.5892 0.914802C14.0452 0.703777 13.4247 0.559953 12.5163 0.518353C11.606 0.47693 11.3163 0.466797 8.99802 0.466797H9.00069ZM8.23513 2.00457C8.46233 2.00421 8.71585 2.00457 9.00065 2.00457C11.2791 2.00457 11.5491 2.01274 12.4489 2.05363C13.2809 2.09168 13.7324 2.2307 14.0332 2.3475C14.4315 2.50217 14.7154 2.68706 15.0139 2.98573C15.3125 3.2844 15.4974 3.56885 15.6525 3.96708C15.7693 4.26752 15.9085 4.71908 15.9463 5.55109C15.9872 6.45066 15.9961 6.72088 15.9961 8.99824C15.9961 11.2756 15.9872 11.5458 15.9463 12.4454C15.9083 13.2774 15.7693 13.729 15.6525 14.0294C15.4978 14.4276 15.3125 14.7112 15.0139 15.0097C14.7152 15.3084 14.4316 15.4932 14.0332 15.6479C13.7328 15.7652 13.2809 15.9039 12.4489 15.942C11.5493 15.9828 11.2791 15.9917 9.00065 15.9917C6.72205 15.9917 6.452 15.9828 5.55244 15.942C4.72043 15.9036 4.26887 15.7645 3.96789 15.6477C3.56966 15.4931 3.28521 15.3082 2.98654 15.0095C2.68787 14.7108 2.50298 14.4271 2.34796 14.0287C2.23116 13.7282 2.09196 13.2767 2.05409 12.4447C2.0132 11.5451 2.00502 11.2749 2.00502 8.99611C2.00502 6.71733 2.0132 6.44852 2.05409 5.54896C2.09213 4.71695 2.23116 4.26539 2.34796 3.96459C2.50263 3.56636 2.68787 3.28191 2.98654 2.98324C3.28521 2.68457 3.56966 2.49968 3.96789 2.34466C4.26869 2.22732 4.72043 2.08866 5.55244 2.05043C6.33964 2.01488 6.64471 2.00421 8.23513 2.00243V2.00457ZM13.5557 3.42147C12.9904 3.42147 12.5317 3.87961 12.5317 4.44513C12.5317 5.01047 12.9904 5.46914 13.5557 5.46914C14.1211 5.46914 14.5797 5.01047 14.5797 4.44513C14.5797 3.87979 14.1211 3.42147 13.5557 3.42147ZM9.0007 4.61793C6.58059 4.61793 4.61843 6.58008 4.61843 9.0002C4.61843 11.4203 6.58059 13.3816 9.0007 13.3816C11.4208 13.3816 13.3823 11.4203 13.3823 9.0002C13.3823 6.58008 11.4208 4.61793 9.0007 4.61793ZM9.00067 6.15572C10.5715 6.15572 11.8451 7.42916 11.8451 9.0002C11.8451 10.5711 10.5715 11.8447 9.00067 11.8447C7.42963 11.8447 6.15619 10.5711 6.15619 9.0002C6.15619 7.42916 7.42963 6.15572 9.00067 6.15572Z" fill="#0A174A"/>
</svg>
