<svg width="20" height="18" viewBox="0 0 20 18" fill="none" xmlns="http://www.w3.org/2000/svg">
<path d="M20 9.12676C20 7.85915 19.0016 6.84507 17.7535 6.97183C17.2543 6.97183 16.6303 7.22535 16.2559 7.60563C14.5086 6.46479 12.5117 5.70422 10.39 5.70422L11.3885 0.887324L14.6334 1.64789C14.6334 2.53521 15.3822 3.16901 16.2559 3.16901C17.1295 3.16901 17.7535 2.40845 17.7535 1.52113C17.7535 0.633803 17.0047 0 16.131 0C15.507 0 15.0078 0.380281 14.7582 0.887324L11.2637 0H11.014C10.8892 0 10.8892 0.12676 10.8892 0.253521L9.64119 5.70422C7.5195 5.70422 5.52262 6.33803 3.77535 7.60563C2.90172 6.71831 1.52886 6.71831 0.655226 7.60563C-0.218409 8.49296 -0.218409 9.88732 0.655226 10.7746C0.780031 10.9014 1.02964 11.1549 1.27925 11.1549V11.7887C1.27925 15.2113 5.14821 18 10.0156 18C14.883 18 18.752 15.2113 18.752 11.7887V11.1549C19.5008 10.7746 20 10.0141 20 9.12676V9.12676ZM5.0234 10.7746C5.0234 9.88732 5.77223 9.25352 6.52106 9.25352C7.3947 9.25352 8.01872 10.0141 8.01872 10.7746C8.01872 11.5352 7.26989 12.2958 6.52106 12.2958C5.64743 12.2958 5.0234 11.662 5.0234 10.7746ZM13.7598 14.9577C12.6365 15.7183 11.3885 16.2254 10.0156 16.0986C8.64275 16.0986 7.3947 15.7183 6.27145 14.9577C6.14665 14.831 6.14665 14.5775 6.27145 14.3239C6.39626 14.1972 6.64587 14.1972 6.77067 14.3239C7.64431 14.9577 8.76755 15.338 9.8908 15.2113C11.014 15.338 12.1373 14.9577 13.0109 14.3239C13.1357 14.1972 13.3853 14.1972 13.6349 14.3239C13.8846 14.4507 13.8846 14.7042 13.7598 14.9577ZM13.3853 12.2958C12.5117 12.2958 11.8877 11.5352 11.8877 10.7746C11.8877 10.0141 12.6365 9.25352 13.3853 9.25352C14.259 9.25352 14.883 10.0141 14.883 10.7746C15.0078 11.662 14.259 12.2958 13.3853 12.2958Z" fill="#0A174A"/>
</svg>
