<svg width="20" height="14" viewBox="0 0 20 14" fill="none" xmlns="http://www.w3.org/2000/svg">
<path d="M16.9419 1.17252C15.6302 0.617574 14.2427 0.223258 12.8158 0C12.638 0.29057 12.4304 0.681388 12.2872 0.992305C10.7487 0.783119 9.22444 0.783119 7.71429 0.992305C7.57116 0.681459 7.35882 0.29057 7.17945 0C5.75116 0.223361 4.36238 0.618681 3.05015 1.17542C0.438901 4.74372 -0.26899 8.22328 0.0849164 11.6536C1.81687 12.8232 3.49531 13.5337 5.14546 13.9986C5.55557 13.4886 5.91809 12.9487 6.22929 12.3844C5.63681 12.1804 5.06564 11.929 4.52257 11.6333C4.66548 11.5375 4.80503 11.4376 4.94101 11.3339C8.23179 12.7258 11.8074 12.7258 15.059 11.3339C15.1955 11.437 15.335 11.5368 15.4773 11.6333C14.9334 11.9298 14.3612 12.1817 13.7675 12.3859C14.0805 12.9524 14.4423 13.4929 14.8513 14C16.503 13.5351 18.183 12.8246 19.915 11.6536C20.3303 7.67704 19.2056 4.22934 16.9419 1.17245V1.17252ZM6.67765 9.54403C5.68976 9.54403 4.8796 8.71004 4.8796 7.69449C4.8796 6.67895 5.67249 5.84355 6.67765 5.84355C7.68288 5.84355 8.49296 6.67746 8.47569 7.69449C8.47726 8.71004 7.68288 9.54403 6.67765 9.54403ZM13.3223 9.54403C12.3344 9.54403 11.5243 8.71004 11.5243 7.69449C11.5243 6.67895 12.3171 5.84355 13.3223 5.84355C14.3275 5.84355 15.1376 6.67746 15.1203 7.69449C15.1203 8.71004 14.3275 9.54403 13.3223 9.54403Z" fill="#0A174A"/>
</svg>
